<svg xmlns="http://www.w3.org/2000/svg" viewBox="0 0 512 512" role="img">
  <defs>
    <radialGradient id="instagram-a" cx="30%" cy="107%" r="150%">
      <stop offset="0" stop-color="#fdf497"/>
      <stop offset=".05" stop-color="#fdf497"/>
      <stop offset=".45" stop-color="#fd5949"/>
      <stop offset=".6" stop-color="#d6249f"/>
      <stop offset=".9" stop-color="#285aeb"/>
    </radialGradient>
  </defs>
  <rect width="512" height="512" rx="112" fill="url(#instagram-a)"/>
  <path fill="#fff" d="M256 144c-61.9 0-112 50.1-112 112s50.1 112 112 112 112-50.1 112-112-50.1-112-112-112Zm0 184c-39.8 0-72-32.2-72-72s32.2-72 72-72 72 32.2 72 72-32.2 72-72 72Z"/>
  <circle cx="372" cy="140" r="28" fill="#fff"/>
  <path fill="#fff" d="M360 56H152c-53 0-96 43-96 96v208c0 53 43 96 96 96h208c53 0 96-43 96-96V152c0-53-43-96-96-96Zm56 304c0 30.9-25.1 56-56 56H152c-30.9 0-56-25.1-56-56V152c0-30.9 25.1-56 56-56h208c30.9 0 56 25.1 56 56v208Z"/>
</svg>
